<?xml version="1.0" encoding="UTF-8"?>
<svg width="20px" height="20px" viewBox="0 0 20 20" version="1.1" xmlns="http://www.w3.org/2000/svg" xmlns:xlink="http://www.w3.org/1999/xlink">
    <!-- Generator: Sketch 50.2 (55047) - http://www.bohemiancoding.com/sketch -->
    <title>icon/misc/score_select</title>
    <desc>Created with Sketch.</desc>
    <defs>
        <linearGradient x1="50%" y1="1.7837789%" x2="50%" y2="100%" id="linearGradient-1">
            <stop stop-color="#FFE260" offset="0%"></stop>
            <stop stop-color="#FFB918" offset="100%"></stop>
        </linearGradient>
    </defs>
    <g id="联想电脑管家3.0设计规范" stroke="none" stroke-width="1" fill="none" fill-rule="evenodd">
        <g id="图标/评分/星星_选中" fill="url(#linearGradient-1)">
            <path d="M9.83713279,15.4906716 L5.4588598,17.7924659 C4.97001521,18.0494667 4.36538805,17.8615202 4.10838725,17.3726756 C4.00604818,17.1780151 3.9707335,16.955047 4.00791035,16.7382894 L4.84408608,11.8630108 L1.30198882,8.41031929 C0.906505244,8.02481808 0.898412938,7.39170482 1.28391415,6.99622124 C1.43742275,6.8387376 1.63856517,6.73625043 1.8562022,6.70462592 L6.75126022,5.99333235 L8.94039672,1.55765732 C9.18481901,1.06240366 9.78444484,0.859064662 10.2796985,1.10348696 C10.4769111,1.20081719 10.6365386,1.36044472 10.7338689,1.55765732 L12.9230054,5.99333235 L17.8180634,6.70462592 C18.3646083,6.78404353 18.7432897,7.29148638 18.6638721,7.83803125 C18.6322476,8.05566828 18.5297604,8.25681069 18.3722768,8.41031929 L14.8301795,11.8630108 L15.6663552,16.7382894 C15.7597162,17.2826259 15.3941284,17.7995818 14.849792,17.8929428 C14.6330343,17.9301196 14.4100663,17.894805 14.2154058,17.7924659 L9.83713279,15.4906716 Z" id="Star"></path>
        </g>
        <g id="Guide" transform="translate(-3478.000000, -791.000000)"></g>
    </g>
</svg>